<?xml version="1.0" encoding="UTF-8"?><svg id="Layer_1" xmlns="http://www.w3.org/2000/svg" viewBox="0 0 150.1 150.11"><defs><style>.cls-1,.cls-2{fill:#fff;}.cls-1,.cls-3,.cls-4{stroke:#000201;stroke-linecap:round;}.cls-1,.cls-4{stroke-miterlimit:10;stroke-width:.75px;}.cls-5{stroke:#000;stroke-width:.75px;}.cls-5,.cls-3,.cls-6,.cls-4{fill:none;}.cls-7{fill:#000201;}.cls-3{stroke-dasharray:0 0 0 0 0 0 0 0 0 0 0 3;stroke-linejoin:round;}</style></defs><g><path d="M98.8,92.25c-.37,0-.72-.07-1.06-.21-.55-.23-1.01-.61-1.32-1.11-.5,.81-1.4,1.32-2.38,1.32h-4.76c-.37,0-.72-.07-1.06-.21-.55-.23-1.01-.61-1.32-1.11-.5,.81-1.4,1.32-2.38,1.32h-4.76c-.37,0-.72-.07-1.06-.21-.55-.23-1.01-.61-1.32-1.11-.5,.81-1.4,1.32-2.38,1.32h-4.76c-.37,0-.72-.07-1.06-.21-.55-.23-1.01-.61-1.32-1.11-.51,.81-1.4,1.32-2.38,1.32h-23.82c-.37,0-.72-.07-1.06-.21-.55-.23-1.01-.61-1.32-1.11-.51,.81-1.4,1.32-2.38,1.32H13.04c-.37,0-.72-.07-1.06-.21-.7-.29-1.24-.82-1.53-1.52-.29-.69-.28-1.45,0-2.13l5.47-13.06c.37-.9,1.18-1.52,2.12-1.68-.12-.17-.22-.35-.3-.54-.29-.69-.28-1.45,0-2.13l3.34-7.98c.38-.9,1.18-1.52,2.12-1.68-.12-.17-.22-.35-.3-.54-.29-.69-.28-1.45,0-2.13l.3-.73c.44-1.04,1.45-1.72,2.59-1.72h.79c.37,0,.73,.07,1.07,.21,.55,.23,1,.61,1.31,1.11,.51-.81,1.4-1.32,2.38-1.32h18.26c.37,0,.73,.07,1.07,.21,.55,.23,1,.61,1.31,1.11,.5-.81,1.4-1.32,2.38-1.32h4.76c.37,0,.73,.07,1.07,.21,.55,.23,1,.61,1.31,1.11,.5-.81,1.4-1.32,2.38-1.32h4.76c.37,0,.73,.07,1.07,.21,.69,.28,1.24,.82,1.52,1.52,.29,.69,.28,1.45,0,2.13l-1.96,4.69,.07,.15h5.19c.37,0,.73,.08,1.07,.22,.55,.23,1.01,.61,1.31,1.11,.51-.81,1.4-1.32,2.38-1.32h7.57c.05,0,.1-.03,.12-.08l2.89-6.92c.44-1.04,1.45-1.72,2.59-1.72h4.76c.37,0,.73,.07,1.07,.21,.55,.23,1.01,.61,1.31,1.11,.51-.81,1.4-1.32,2.38-1.32h4.76c.37,0,.73,.07,1.07,.21,.55,.23,1,.61,1.31,1.11,.51-.81,1.4-1.32,2.38-1.32h.79c.37,0,.73,.07,1.07,.21,.55,.23,1.01,.61,1.31,1.11,.51-.81,1.4-1.32,2.38-1.32h18.26c.37,0,.73,.07,1.07,.21,.69,.28,1.24,.82,1.52,1.52,.29,.69,.28,1.45,0,2.13l-9.11,21.77c-.38,.9-1.18,1.52-2.12,1.68,.12,.17,.22,.35,.3,.54,.29,.69,.28,1.45,0,2.13l-1.82,4.36c-.44,1.04-1.45,1.72-2.59,1.72h-23.82Zm-57.73-8.61c.04-.06,.08-.12,.12-.18-.07,.02-.14,.03-.21,.04,.03,.04,.06,.09,.09,.14Zm28.56-.04l.05-.12s-.08,.02-.12,.02c.02,.03,.04,.07,.07,.1Zm-26.86-1.2c.07-.02,.14-.03,.21-.04-.03-.04-.06-.09-.09-.14-.04,.06-.08,.12-.12,.18Zm19.24-.08s-.04-.06-.06-.1c-.02,.03-.04,.07-.06,.1h.13Zm-9.53,0s-.04-.06-.06-.1c-.02,.03-.04,.07-.06,.1h.13Zm51.2-8.65s.08-.02,.12-.02c-.02-.03-.05-.07-.07-.1l-.05,.12Zm-57.17,0s.08-.02,.12-.02c-.02-.03-.04-.07-.07-.1l-.05,.12Zm62.34-12.34s.08-.02,.12-.02c-.02-.03-.04-.07-.07-.1l-.05,.12Z"/><path d="M100.47,93.92c-.37,0-.72-.07-1.06-.21-.55-.23-1.01-.61-1.32-1.11-.5,.81-1.4,1.32-2.38,1.32h-4.76c-.37,0-.72-.07-1.06-.21-.55-.23-1.01-.61-1.32-1.11-.5,.81-1.4,1.32-2.38,1.32h-4.76c-.37,0-.72-.07-1.06-.21-.55-.23-1.01-.61-1.32-1.11-.5,.81-1.4,1.32-2.38,1.32h-4.76c-.37,0-.72-.07-1.06-.21-.55-.23-1.01-.61-1.32-1.11-.51,.81-1.4,1.32-2.38,1.32h-23.82c-.37,0-.72-.07-1.06-.21-.55-.23-1.01-.61-1.32-1.11-.51,.81-1.4,1.32-2.38,1.32H14.71c-.37,0-.72-.07-1.06-.21-.7-.29-1.24-.82-1.53-1.52-.29-.69-.28-1.45,0-2.13l5.47-13.06c.37-.9,1.18-1.52,2.12-1.68-.12-.17-.22-.35-.3-.54-.29-.69-.28-1.45,0-2.13l3.34-7.98c.38-.9,1.18-1.52,2.12-1.68-.12-.17-.22-.35-.3-.54-.29-.69-.28-1.45,0-2.13l.3-.73c.44-1.04,1.45-1.72,2.59-1.72h.79c.37,0,.73,.07,1.07,.21,.55,.23,1,.61,1.31,1.11,.51-.81,1.4-1.32,2.38-1.32h18.26c.37,0,.73,.07,1.07,.21,.55,.23,1,.61,1.31,1.11,.5-.81,1.4-1.32,2.38-1.32h4.76c.37,0,.73,.07,1.07,.21,.55,.23,1,.61,1.31,1.11,.5-.81,1.4-1.32,2.38-1.32h4.76c.37,0,.73,.07,1.07,.21,.69,.28,1.24,.82,1.52,1.52,.29,.69,.28,1.45,0,2.13l-1.96,4.69,.07,.15h5.19c.37,0,.73,.08,1.07,.22,.55,.23,1.01,.61,1.31,1.11,.51-.81,1.4-1.32,2.38-1.32h7.57c.05,0,.1-.03,.12-.08l2.89-6.92c.44-1.04,1.45-1.72,2.59-1.72h4.76c.37,0,.73,.07,1.07,.21,.55,.23,1.01,.61,1.31,1.11,.51-.81,1.4-1.32,2.38-1.32h4.76c.37,0,.73,.07,1.07,.21,.55,.23,1,.61,1.31,1.11,.51-.81,1.4-1.32,2.38-1.32h.79c.37,0,.73,.07,1.07,.21,.55,.23,1.01,.61,1.31,1.11,.51-.81,1.4-1.32,2.38-1.32h18.26c.37,0,.73,.07,1.07,.21,.69,.28,1.24,.82,1.52,1.52,.29,.69,.28,1.45,0,2.13l-9.11,21.77c-.38,.9-1.18,1.52-2.12,1.68,.12,.17,.22,.35,.3,.54,.29,.69,.28,1.45,0,2.13l-1.82,4.36c-.44,1.04-1.45,1.72-2.59,1.72h-23.82Zm-57.73-8.61c.04-.06,.08-.12,.12-.18-.07,.02-.14,.03-.21,.04,.03,.04,.06,.09,.09,.14Zm28.56-.04l.05-.12s-.08,.02-.12,.02c.02,.03,.04,.07,.07,.1Zm-26.86-1.2c.07-.02,.14-.03,.21-.04-.03-.04-.06-.09-.09-.14-.04,.06-.08,.12-.12,.18Zm19.24-.08s-.04-.06-.06-.1c-.02,.03-.04,.07-.06,.1h.13Zm-9.53,0s-.04-.06-.06-.1c-.02,.03-.04,.07-.06,.1h.13Zm51.2-8.65s.08-.02,.12-.02c-.02-.03-.05-.07-.07-.1l-.05,.12Zm-57.17,0s.08-.02,.12-.02c-.02-.03-.04-.07-.07-.1l-.05,.12Zm62.34-12.34s.08-.02,.12-.02c-.02-.03-.04-.07-.07-.1l-.05,.12Z"/><path class="cls-2" d="M31.37,57.53h18.26c.19,0,.38,.04,.56,.11,.75,.31,1.1,1.16,.79,1.9l-9.12,21.77c-.23,.54-.76,.9-1.36,.9H22.44c-.41,0-.73,.32-.73,.73s.33,.73,.73,.73h16.25c.19,0,.38,.04,.56,.11,.75,.31,1.1,1.16,.79,1.9l-1.82,4.35c-.23,.54-.76,.9-1.36,.9H13.04c-.19,0-.38-.04-.56-.11-.75-.31-1.1-1.16-.79-1.9l5.47-13.06c.23-.54,.76-.9,1.36-.9h18.08c.41,0,.73-.32,.73-.73s-.33-.73-.73-.73H20.34c-.19,0-.38-.04-.56-.11-.75-.31-1.1-1.16-.79-1.9l3.34-7.98c.23-.54,.76-.9,1.36-.9h2.62c1.19,0,2.26-.71,2.71-1.79l1-2.39c.23-.54,.76-.9,1.36-.9Zm-5.56,0c-.59,0-1.13,.35-1.36,.9l-.3,.73c-.31,.74,.05,1.59,.79,1.9,.18,.07,.37,.11,.56,.11h.79c.59,0,1.13-.35,1.36-.9l.3-.73c.31-.74-.05-1.59-.79-1.9-.18-.07-.37-.11-.56-.11h-.79Zm89.96,.9l-1,2.39c-.45,1.08-1.52,1.79-2.71,1.79h-2.62c-.59,0-1.13,.35-1.36,.9l-3.34,7.98c-.31,.74,.05,1.59,.79,1.9,.18,.07,.37,.11,.56,.11h16.25c.41,0,.73,.32,.73,.73s-.33,.73-.73,.73h-18.08c-.59,0-1.13,.35-1.36,.9l-5.47,13.06c-.31,.74,.05,1.59,.79,1.9,.18,.07,.37,.11,.56,.11h23.82c.59,0,1.13-.35,1.36-.9l1.82-4.35c.31-.74-.05-1.59-.79-1.9-.18-.07-.37-.11-.56-.11h-16.25c-.41,0-.73-.32-.73-.73s.33-.73,.73-.73h18.08c.59,0,1.13-.35,1.36-.9l9.12-21.77c.31-.74-.05-1.59-.79-1.9-.18-.07-.37-.11-.56-.11h-18.26c-.59,0-1.13,.35-1.36,.9Zm-4.2-.9c-.59,0-1.13,.35-1.36,.9l-.3,.73c-.31,.74,.05,1.59,.79,1.9,.18,.07,.37,.11,.56,.11h.79c.59,0,1.13-.35,1.36-.9l.3-.73c.31-.74-.05-1.59-.79-1.9-.18-.07-.37-.11-.56-.11h-.79Zm-23.65,31.38c-.31,.74,.05,1.59,.79,1.9,.18,.07,.37,.11,.56,.11h4.76c.59,0,1.13-.35,1.36-.9l12.76-30.48c.31-.74-.05-1.59-.79-1.9-.18-.07-.37-.11-.56-.11h-4.76c-.59,0-1.13,.35-1.36,.9l-12.76,30.48Zm-4.66-15.41c.16-.37,.58-.55,.96-.39,.37,.15,.55,.58,.4,.95l-6.22,14.86c-.31,.74,.05,1.59,.79,1.9,.18,.07,.37,.11,.56,.11h4.76c.59,0,1.13-.35,1.36-.9l12.76-30.48c.31-.74-.05-1.59-.79-1.9-.18-.07-.37-.11-.56-.11h-4.76c-.59,0-1.13,.35-1.36,.9l-2.9,6.92c-.23,.54-.76,.9-1.36,.9h-7.57c-.59,0-1.13,.35-1.36,.9l-9.12,21.77c-.31,.74,.05,1.59,.79,1.9,.18,.07,.37,.11,.56,.11h4.76c.59,0,1.13-.35,1.36-.9l6.92-16.52Zm-39.8,10.16c-.59,0-1.13,.35-1.36,.9l-1.82,4.35c-.31,.74,.05,1.59,.79,1.9,.18,.07,.37,.11,.56,.11h23.82c.59,0,1.13-.35,1.36-.9l1.82-4.35c.31-.74-.05-1.59-.79-1.9-.18-.07-.37-.11-.56-.11h-23.82Zm3.65-8.71c-.59,0-1.13,.35-1.36,.9l-1.82,4.35c-.31,.74,.05,1.59,.79,1.9,.18,.07,.37,.11,.56,.11h4.76c.59,0,1.13-.35,1.36-.9l1.82-4.35c.31-.74-.05-1.59-.79-1.9-.18-.07-.37-.11-.56-.11h-4.76Zm17.23,7.26h4.76c.59,0,1.13-.35,1.36-.9l5.47-13.06c.31-.74-.05-1.59-.79-1.9-.18-.07-.37-.11-.56-.11h-5.14c-.19,0-.38-.04-.56-.11-.75-.31-1.1-1.16-.79-1.9l1.97-4.7c.31-.74-.05-1.59-.79-1.9-.18-.07-.37-.11-.56-.11h-4.76c-.59,0-1.13,.35-1.36,.9l-3.27,7.81c-.16,.37-.58,.55-.96,.39-.37-.15-.55-.58-.4-.95l2.57-6.15c.31-.74-.05-1.59-.79-1.9-.18-.07-.37-.11-.56-.11h-4.76c-.59,0-1.13,.35-1.36,.9l-5.47,13.06c-.31,.74,.05,1.59,.79,1.9,.18,.07,.37,.11,.56,.11h5.14c.19,0,.38,.04,.56,.11,.75,.31,1.1,1.16,.79,1.9l-1.97,4.7c-.31,.74,.05,1.59,.79,1.9,.18,.07,.37,.11,.56,.11h4.76c.59,0,1.13-.35,1.36-.9l3.27-7.81c.16-.37,.58-.55,.96-.39,.37,.15,.55,.58,.4,.95l-2.57,6.15c-.31,.74,.05,1.59,.79,1.9,.18,.07,.37,.11,.56,.11Z"/><path class="cls-5" d="M31.37,57.53h18.26c.19,0,.38,.04,.56,.11,.75,.31,1.1,1.16,.79,1.9l-9.12,21.77c-.23,.54-.76,.9-1.36,.9H22.44c-.41,0-.73,.32-.73,.73s.33,.73,.73,.73h16.25c.19,0,.38,.04,.56,.11,.75,.31,1.1,1.16,.79,1.9l-1.82,4.35c-.23,.54-.76,.9-1.36,.9H13.04c-.19,0-.38-.04-.56-.11-.75-.31-1.1-1.16-.79-1.9l5.47-13.06c.23-.54,.76-.9,1.36-.9h18.08c.41,0,.73-.32,.73-.73s-.33-.73-.73-.73H20.34c-.19,0-.38-.04-.56-.11-.75-.31-1.1-1.16-.79-1.9l3.34-7.98c.23-.54,.76-.9,1.36-.9h2.62c1.19,0,2.26-.71,2.71-1.79l1-2.39c.23-.54,.76-.9,1.36-.9Zm-5.56,0c-.59,0-1.13,.35-1.36,.9l-.3,.73c-.31,.74,.05,1.59,.79,1.9,.18,.07,.37,.11,.56,.11h.79c.59,0,1.13-.35,1.36-.9l.3-.73c.31-.74-.05-1.59-.79-1.9-.18-.07-.37-.11-.56-.11h-.79Zm89.96,.9l-1,2.39c-.45,1.08-1.52,1.79-2.71,1.79h-2.62c-.59,0-1.13,.35-1.36,.9l-3.34,7.98c-.31,.74,.05,1.59,.79,1.9,.18,.07,.37,.11,.56,.11h16.25c.41,0,.73,.32,.73,.73s-.33,.73-.73,.73h-18.08c-.59,0-1.13,.35-1.36,.9l-5.47,13.06c-.31,.74,.05,1.59,.79,1.9,.18,.07,.37,.11,.56,.11h23.82c.59,0,1.13-.35,1.36-.9l1.82-4.35c.31-.74-.05-1.59-.79-1.9-.18-.07-.37-.11-.56-.11h-16.25c-.41,0-.73-.32-.73-.73s.33-.73,.73-.73h18.08c.59,0,1.13-.35,1.36-.9l9.12-21.77c.31-.74-.05-1.59-.79-1.9-.18-.07-.37-.11-.56-.11h-18.26c-.59,0-1.13,.35-1.36,.9Zm-4.2-.9c-.59,0-1.13,.35-1.36,.9l-.3,.73c-.31,.74,.05,1.59,.79,1.9,.18,.07,.37,.11,.56,.11h.79c.59,0,1.13-.35,1.36-.9l.3-.73c.31-.74-.05-1.59-.79-1.9-.18-.07-.37-.11-.56-.11h-.79Zm-23.65,31.38c-.31,.74,.05,1.59,.79,1.9,.18,.07,.37,.11,.56,.11h4.76c.59,0,1.13-.35,1.36-.9l12.76-30.48c.31-.74-.05-1.59-.79-1.9-.18-.07-.37-.11-.56-.11h-4.76c-.59,0-1.13,.35-1.36,.9l-12.76,30.48Zm-4.66-15.41c.16-.37,.58-.55,.96-.39,.37,.15,.55,.58,.4,.95l-6.22,14.86c-.31,.74,.05,1.59,.79,1.9,.18,.07,.37,.11,.56,.11h4.76c.59,0,1.13-.35,1.36-.9l12.76-30.48c.31-.74-.05-1.59-.79-1.9-.18-.07-.37-.11-.56-.11h-4.76c-.59,0-1.13,.35-1.36,.9l-2.9,6.92c-.23,.54-.76,.9-1.36,.9h-7.57c-.59,0-1.13,.35-1.36,.9l-9.12,21.77c-.31,.74,.05,1.59,.79,1.9,.18,.07,.37,.11,.56,.11h4.76c.59,0,1.13-.35,1.36-.9l6.92-16.52Zm-39.8,10.16c-.59,0-1.13,.35-1.36,.9l-1.82,4.35c-.31,.74,.05,1.59,.79,1.9,.18,.07,.37,.11,.56,.11h23.82c.59,0,1.13-.35,1.36-.9l1.82-4.35c.31-.74-.05-1.59-.79-1.9-.18-.07-.37-.11-.56-.11h-23.82Zm3.65-8.71c-.59,0-1.13,.35-1.36,.9l-1.82,4.35c-.31,.74,.05,1.59,.79,1.9,.18,.07,.37,.11,.56,.11h4.76c.59,0,1.13-.35,1.36-.9l1.82-4.35c.31-.74-.05-1.59-.79-1.9-.18-.07-.37-.11-.56-.11h-4.76Zm17.23,7.26h4.76c.59,0,1.13-.35,1.36-.9l5.47-13.06c.31-.74-.05-1.59-.79-1.9-.18-.07-.37-.11-.56-.11h-5.14c-.19,0-.38-.04-.56-.11-.75-.31-1.1-1.16-.79-1.9l1.97-4.7c.31-.74-.05-1.59-.79-1.9-.18-.07-.37-.11-.56-.11h-4.76c-.59,0-1.13,.35-1.36,.9l-3.27,7.81c-.16,.37-.58,.55-.96,.39-.37-.15-.55-.58-.4-.95l2.57-6.15c.31-.74-.05-1.59-.79-1.9-.18-.07-.37-.11-.56-.11h-4.76c-.59,0-1.13,.35-1.36,.9l-5.47,13.06c-.31,.74,.05,1.59,.79,1.9,.18,.07,.37,.11,.56,.11h5.14c.19,0,.38,.04,.56,.11,.75,.31,1.1,1.16,.79,1.9l-1.97,4.7c-.31,.74,.05,1.59,.79,1.9,.18,.07,.37,.11,.56,.11h4.76c.59,0,1.13-.35,1.36-.9l3.27-7.81c.16-.37,.58-.55,.96-.39,.37,.15,.55,.58,.4,.95l-2.57,6.15c-.31,.74,.05,1.59,.79,1.9,.18,.07,.37,.11,.56,.11Z"/></g><g><g><line class="cls-1" x1="20.3" y1="52.25" x2="22.76" y2="52.25"/><line class="cls-1" x1="15.46" y1="52.25" x2="17.92" y2="52.25"/></g><g><line class="cls-1" x1="19.11" y1="51.08" x2="19.11" y2="48.66"/><line class="cls-1" x1="19.11" y1="55.85" x2="19.11" y2="53.43"/></g></g><rect class="cls-6" x=".24" y="-1.1" width="149.61" height="149.62"/><rect class="cls-6" x="10.24" y="8.91" width="129.62" height="129.61" transform="translate(148.76 -1.34) rotate(90)"/><circle class="cls-7" cx="124.4" cy="53.47" r=".41"/><path class="cls-4" d="M126.07,53.39h14.01s7.08,.15,4.55,5.66l-5.14,11.93"/><path class="cls-3" d="M8.86,82.86s-10.01,15.32,9.11,15.26,25.55-.39,25.55-.39"/></svg>