<?xml version="1.0" encoding="UTF-8"?><svg id="Layer_1" xmlns="http://www.w3.org/2000/svg" viewBox="0 0 150.1 150.11"><defs><style>.cls-1,.cls-2{fill:#fff;}.cls-1,.cls-3,.cls-4{stroke:#000201;stroke-linecap:round;}.cls-1,.cls-4{stroke-miterlimit:10;stroke-width:.75px;}.cls-5{fill:#ffb600;}.cls-6{stroke:#000;stroke-width:.75px;}.cls-6,.cls-3,.cls-7,.cls-4{fill:none;}.cls-8{fill:#000201;}.cls-3{stroke-dasharray:0 0 0 0 0 0 0 0 0 0 0 3;stroke-linejoin:round;}</style></defs><g><g><line class="cls-1" x1="28.76" y1="22.92" x2="31.22" y2="22.92"/><line class="cls-1" x1="23.92" y1="22.92" x2="26.38" y2="22.92"/></g><g><line class="cls-1" x1="27.57" y1="21.75" x2="27.57" y2="19.33"/><line class="cls-1" x1="27.57" y1="26.52" x2="27.57" y2="24.1"/></g></g><rect class="cls-7" x=".24" y=".24" width="149.61" height="149.62"/><rect class="cls-7" x="10.24" y="10.25" width="129.62" height="129.61" transform="translate(150.1 0) rotate(90)"/><circle class="cls-8" cx="119.56" cy="26.01" r=".41"/><g><g><path class="cls-5" d="M136.3,29.33v.02l-5.89,13.04-5.91,13.06-5.9,13.06-1.85,4.1h-18.68l1.86-4.1,5.91-13.06,2.49-5.51h-43.81l-2.49,5.51-5.91,13.06-5.91,13.06-5.91,13.06-5.91,13.06-5.91,13.06H13.8l5.91-13.06,5.91-13.06,5.91-13.06,5.91-13.06,5.91-13.06,5.91-13.06,5.91-13.06h81.12"/><path class="cls-5" d="M45.46,29.35l-5.9,13.04-.75,1.66-.75-1.66-5.9-13.04h13.3"/><path class="cls-5" d="M68.54,68.53l5.91,13.06,5.91,13.06,3.87,8.55,3.87-8.55,5.91-13.06,1.31-2.9h18.66l-1.31,2.9-5.91,13.06-5.91,13.06-5.91,13.06h-21.41l-5.91-13.06-5.91-13.06-2.54-5.61,3.41-7.45,5.97-13.06"/></g><g><path d="M13.8,122.11c-.45,0-.88-.23-1.12-.61-.25-.38-.28-.86-.09-1.28L53.96,28.78c.22-.48,.69-.79,1.22-.79h81.12c.74,0,1.34,.6,1.34,1.34,0,.19-.04,.4-.12,.57l-19.56,43.27c-.22,.48-.69,.79-1.22,.79h-18.68c-.45,0-.88-.23-1.12-.61-.25-.38-.28-.86-.09-1.27l9.41-20.79h-40.88l-31.69,70.04c-.22,.48-.69,.79-1.22,.79H13.8Z"/><path d="M38.81,45.39c-.53,0-1-.31-1.22-.79l-6.65-14.7c-.19-.41-.15-.89,.09-1.27,.25-.38,.67-.61,1.12-.61h13.3c.45,0,.88,.23,1.12,.61,.25,.38,.28,.86,.09,1.27l-6.65,14.7c-.22,.48-.69,.79-1.22,.79Z"/><path d="M73.52,122.11c-.52,0-1-.31-1.22-.79l-14.36-31.74c-.16-.35-.16-.75,0-1.11l9.38-20.51c.22-.48,.69-.78,1.21-.78h0c.52,0,1,.31,1.21,.79l14.47,31.98,9.88-21.83c.22-.48,.69-.79,1.22-.79h18.66c.45,0,.88,.23,1.12,.61,.25,.38,.28,.86,.09,1.27l-19.04,42.09c-.22,.48-.69,.79-1.22,.79h-21.41Z"/></g><g><path d="M15.47,123.78c-.45,0-.88-.23-1.12-.61-.25-.38-.28-.86-.09-1.28L55.63,30.45c.22-.48,.69-.79,1.22-.79h81.12c.74,0,1.34,.6,1.34,1.34,0,.19-.04,.4-.12,.57l-19.56,43.27c-.22,.48-.69,.79-1.22,.79h-18.68c-.45,0-.88-.23-1.12-.61-.25-.38-.28-.86-.09-1.27l9.41-20.79h-40.88l-31.69,70.04c-.22,.48-.69,.79-1.22,.79H15.47Z"/><path d="M40.48,47.06c-.53,0-1-.31-1.22-.79l-6.65-14.7c-.19-.41-.15-.89,.09-1.27,.25-.38,.67-.61,1.12-.61h13.3c.45,0,.88,.23,1.12,.61,.25,.38,.28,.86,.09,1.27l-6.65,14.7c-.22,.48-.69,.79-1.22,.79Z"/><path d="M75.19,123.78c-.52,0-1-.31-1.22-.79l-14.36-31.74c-.16-.35-.16-.75,0-1.11l9.38-20.51c.22-.48,.69-.78,1.21-.78h0c.52,0,1,.31,1.21,.79l14.47,31.98,9.88-21.83c.22-.48,.69-.79,1.22-.79h18.66c.45,0,.88,.23,1.12,.61,.25,.38,.28,.86,.09,1.27l-19.04,42.09c-.22,.48-.69,.79-1.22,.79h-21.41Z"/></g><g><path class="cls-2" d="M136.3,29.33v.02l-5.89,13.04-5.91,13.06-5.9,13.06-1.85,4.1h-18.68l1.86-4.1,5.91-13.06,2.49-5.51h-43.81l-2.49,5.51-5.91,13.06-5.91,13.06-5.91,13.06-5.91,13.06-5.91,13.06H13.8l5.91-13.06,5.91-13.06,5.91-13.06,5.91-13.06,5.91-13.06,5.91-13.06,5.91-13.06h81.12"/><path class="cls-2" d="M45.46,29.35l-5.9,13.04-.75,1.66-.75-1.66-5.9-13.04h13.3"/><path class="cls-2" d="M68.54,68.53l5.91,13.06,5.91,13.06,3.87,8.55,3.87-8.55,5.91-13.06,1.31-2.9h18.66l-1.31,2.9-5.91,13.06-5.91,13.06-5.91,13.06h-21.41l-5.91-13.06-5.91-13.06-2.54-5.61,3.41-7.45,5.97-13.06"/></g><g><path class="cls-6" d="M136.3,29.33v.02l-5.89,13.04-5.91,13.06-5.9,13.06-1.85,4.1h-18.68l1.86-4.1,5.91-13.06,2.49-5.51h-43.81l-2.49,5.51-5.91,13.06-5.91,13.06-5.91,13.06-5.91,13.06-5.91,13.06H13.8l5.91-13.06,5.91-13.06,5.91-13.06,5.91-13.06,5.91-13.06,5.91-13.06,5.91-13.06h81.12"/><path class="cls-6" d="M45.46,29.35l-5.9,13.04-.75,1.66-.75-1.66-5.9-13.04h13.3"/><path class="cls-6" d="M68.54,68.53l5.91,13.06,5.91,13.06,3.87,8.55,3.87-8.55,5.91-13.06,1.31-2.9h18.66l-1.31,2.9-5.91,13.06-5.91,13.06-5.91,13.06h-21.41l-5.91-13.06-5.91-13.06-2.54-5.61,3.41-7.45,5.97-13.06"/></g></g><polyline class="cls-4" points="121.13 26 143.86 26 138.12 38.59"/><polyline class="cls-3" points="40.58 122.85 51.61 97.29 59.66 114.28"/></svg>