<?xml version="1.0" encoding="UTF-8"?><svg id="Layer_1" xmlns="http://www.w3.org/2000/svg" viewBox="0 0 150.1 150.11"><defs><style>.cls-1,.cls-2{fill:#fff;}.cls-1,.cls-3,.cls-4{stroke:#000201;stroke-linecap:round;}.cls-1,.cls-4{stroke-miterlimit:10;stroke-width:.75px;}.cls-5{stroke:#000;stroke-width:.75px;}.cls-5,.cls-3,.cls-6,.cls-4{fill:none;}.cls-7{fill:#000201;}.cls-3{stroke-dasharray:0 0 0 0 0 0 0 0 0 0 0 3;stroke-linejoin:round;}</style></defs><g><g><line class="cls-1" x1="13.82" y1="51.52" x2="16.28" y2="51.52"/><line class="cls-1" x1="8.97" y1="51.52" x2="11.43" y2="51.52"/></g><g><line class="cls-1" x1="12.63" y1="50.35" x2="12.63" y2="47.93"/><line class="cls-1" x1="12.63" y1="55.12" x2="12.63" y2="52.7"/></g></g><rect class="cls-6" x=".24" y="-1.1" width="149.61" height="149.62"/><rect class="cls-6" x="10.24" y="8.91" width="129.62" height="129.61" transform="translate(148.76 -1.34) rotate(90)"/><circle class="cls-7" cx="47.94" cy="104.31" r=".41"/><g><g><g><path d="M19.53,72.62c.73,.66,1.61,1.17,2.65,1.54,1.04,.37,2.22,.55,3.52,.55s2.45-.18,3.5-.55c1.05-.37,1.95-.88,2.69-1.54,.74-.66,1.32-1.45,1.72-2.37,.4-.92,.6-1.95,.6-3.07v-11.63h-4.78v11.26c0,.51-.07,.99-.2,1.45-.13,.46-.34,.87-.64,1.23-.3,.36-.68,.65-1.16,.86-.47,.21-1.05,.32-1.72,.32s-1.24-.11-1.72-.32c-.47-.21-.86-.5-1.15-.86-.29-.36-.5-.77-.64-1.23-.14-.46-.21-.94-.21-1.45v-11.26h-4.75v11.63c0,1.13,.2,2.15,.59,3.07,.39,.92,.95,1.71,1.68,2.37Z"/><path d="M64.46,74.21c.95,0,1.88-.09,2.78-.28,.9-.18,1.71-.49,2.42-.91,.71-.42,1.28-.98,1.7-1.67,.43-.69,.64-1.55,.64-2.57,0-.62-.11-1.17-.32-1.66-.21-.49-.5-.92-.87-1.29-.36-.37-.79-.67-1.28-.91-.49-.24-1.02-.4-1.58-.49v-.05c.97-.3,1.75-.79,2.35-1.46,.6-.68,.89-1.53,.89-2.57,0-.95-.21-1.73-.61-2.35-.41-.62-.94-1.1-1.59-1.46-.65-.36-1.38-.62-2.18-.76-.8-.15-1.58-.22-2.35-.22h-7.87v9.51c-1.23,2.35-1.87,4.89-1.91,7.62-.81-1-1.73-2.17-2.77-3.51l-.02-.02c-.8-.98-1.72-1.95-2.79-2.94,1.27-.37,2.27-.98,2.99-1.84,.73-.86,1.09-1.93,1.09-3.19,0-1.07-.21-1.97-.64-2.69-.43-.72-1-1.3-1.72-1.74-.72-.44-1.53-.75-2.43-.94-.9-.18-1.83-.28-2.78-.28h-7.54v3.39l-.03-.02-.15-.08c-.21-.11-.43-.16-.66-.16-.26,0-.52,.07-.75,.21-.42,.26-.65,.73-.6,1.2,.2,1.8,.45,3.17,.79,4.31,.28,1.07,.75,2.13,1.4,3.22v6.59h4.66v-1.16c1.18,1.02,2.36,1.79,3.54,2.31,.6,.27,1.19,.52,1.74,.76-1.37,.43-2.54,1-3.45,1.68-2.77,2.06-4.17,4.34-4.17,6.77,0,1.2,.45,2.96,2.61,4.57,.01,.01,.03,.02,.04,.03,1.12,.77,2.44,1.38,3.95,1.84-.07,.31-.1,.63-.1,.96,0,.09,0,.19,0,.28-.04-.02-.07-.04-.09-.05-.08-.07-.17-.12-.27-.17-.19-.09-.47-.2-.83-.2-.74,0-1.49,.52-1.49,1.52,0,.28,.06,.66,.24,1.73l.06,.37c.2,1.68,.34,1.96,.42,2.1,.23,.43,.7,.71,1.22,.71,.42,0,.71-.16,1.11-.37,.21-.11,.48-.26,.83-.42,.04-.02,.07-.04,.1-.05,.31-.18,.55-.3,.71-.38,.15,.09,.38,.23,.71,.47,.74,.54,1.08,.89,1.19,1.01,.36,.48,.81,.72,1.33,.72,.39,0,.75-.15,1.02-.41,.42-.41,.46-.93,.44-1.29,0-.12,0-.22,0-.33,.24-.02,.5-.09,1.15-.28,.51-.15,1.22-.34,2.16-.59,.02,0,.05-.01,.07-.02,.52-.16,1.09-.32,1.69-.48,.57-.15,1.15-.31,1.78-.5,.21-.06,.39-.17,.55-.32,.46-.43,.69-1.03,.69-1.79,0-.55-.27-1.02-.68-1.3,.45-.31,.82-.74,1.12-1.31,.02-.04,.04-.08,.06-.13,.67-1.72,1.01-3.89,1.01-6.48,0-2.02-.83-4.09-2.46-6.17,1.04-1.09,1.9-2.31,2.58-3.64h1.13Zm2.76-5.85c0,.46-.1,.83-.31,1.12-.21,.29-.47,.51-.8,.67-.33,.16-.69,.27-1.09,.33-.12,.02-.23,.03-.35,.04,.02-.07,.04-.13,.05-.2,.27-1.09,.47-2.38,.6-3.89,.36,.07,.69,.17,.97,.31,.61,.3,.92,.84,.92,1.61Zm-.64-7.41c0,.67-.25,1.17-.74,1.52-.1,.07-.21,.13-.33,.18,0-.36,0-.72,0-1.1,0-.14,0-.32,.02-.52,.02-.33,.04-.75,.04-1.23v-.33c.08,.03,.16,.06,.23,.1,.51,.29,.77,.75,.77,1.38Zm-5.18-1.82c-.07,.06-.13,.12-.2,.18v-.18h.2Zm-18.69,.05h2.55c.36,0,.72,.03,1.11,.08,.38,.05,.73,.15,1.04,.3,.31,.15,.56,.36,.76,.63,.2,.27,.29,.63,.29,1.07,0,.47-.11,.86-.32,1.16-.22,.3-.49,.53-.83,.69-.34,.16-.71,.27-1.12,.33-.11,.02-.22,.02-.32,.04-1.09-.84-2.02-1.46-2.88-1.94-.09-.05-.18-.1-.27-.15v-2.21Z"/><path d="M79.37,70.54h7.65l1.54,3.67h5.31l-8.21-18.67h-4.64l-8.29,18.67h5.19l1.45-3.67Zm3.88-10.02l2.46,6.41h-4.97l2.51-6.41Z"/><polygon points="100.04 62 100.12 62 108.08 74.21 113.5 74.21 113.5 55.54 108.86 55.54 108.97 67.72 108.89 67.72 100.96 55.54 95.51 55.54 95.51 74.21 100.15 74.21 100.04 62"/><polygon points="28.68 90.14 28.57 90.14 24.07 78.17 17.27 78.17 17.27 96.84 21.77 96.84 21.66 83.63 21.74 83.63 26.74 96.84 30.09 96.84 35.23 83.63 35.31 83.63 35.2 96.84 39.89 96.84 39.89 78.17 32.98 78.17 28.68 90.14"/><polygon points="77.97 90.35 77.89 90.35 69.96 78.17 64.51 78.17 64.51 96.84 69.15 96.84 69.04 84.63 69.12 84.63 77.08 96.84 82.5 96.84 82.5 78.17 77.86 78.17 77.97 90.35"/><polygon points="104.36 78.17 98.39 78.17 91.32 85.76 91.24 85.76 91.24 78.17 86.57 78.17 86.57 96.84 91.24 96.84 91.24 88.24 91.29 88.24 98.64 96.84 104.86 96.84 95.84 86.77 104.36 78.17"/><polygon points="111.04 89.11 119.24 89.11 119.24 85.5 111.04 85.5 111.04 81.97 119.72 81.97 119.72 78.17 106.43 78.17 106.43 96.84 120.22 96.84 120.22 92.99 111.04 92.99 111.04 89.11"/><polygon points="134.99 78.17 130.78 85.08 126.56 78.17 120.78 78.17 128.21 88.93 128.21 96.84 132.98 96.84 132.98 88.93 140.58 78.17 134.99 78.17"/></g><g><path d="M25.7,76.05c-1.45,0-2.78-.21-3.96-.63-1.21-.43-2.25-1.04-3.1-1.81-.87-.79-1.54-1.74-2.01-2.84-.46-1.08-.69-2.29-.69-3.59v-11.63c0-.74,.6-1.34,1.34-1.34h4.75c.74,0,1.34,.6,1.34,1.34v11.26c0,.38,.05,.73,.15,1.06,.09,.3,.22,.55,.41,.78,.16,.2,.37,.35,.65,.47,.3,.13,.7,.2,1.17,.2s.88-.07,1.17-.2c.29-.13,.51-.29,.67-.49,.18-.22,.31-.46,.38-.74,.1-.34,.14-.7,.14-1.09v-11.26c0-.74,.6-1.34,1.34-1.34h4.78c.74,0,1.34,.6,1.34,1.34v11.63c0,1.3-.24,2.52-.71,3.6-.48,1.1-1.17,2.05-2.06,2.84-.87,.77-1.93,1.38-3.14,1.8-1.19,.42-2.52,.63-3.95,.63Z"/><path d="M52.16,100.56c-.91,0-1.75-.42-2.35-1.2-.09-.1-.37-.37-.95-.79-.06,.03-.11,.06-.17,.09-.32,.15-.56,.28-.76,.38-.48,.26-1,.54-1.76,.54-1.01,0-1.93-.54-2.4-1.42-.19-.35-.36-.79-.57-2.57l-.05-.3c-.2-1.17-.26-1.56-.26-1.95,0-.88,.36-1.64,.94-2.16-.55-.28-1.06-.58-1.54-.91-.01,0-.07-.05-.09-.06-2.6-1.94-3.14-4.14-3.14-5.64,0-2.87,1.59-5.51,4.71-7.84,.3-.22,.62-.44,.97-.64-.42-.23-.84-.49-1.26-.78-.21,.14-.47,.23-.75,.23h-4.66c-.74,0-1.34-.6-1.34-1.34v-6.23c-.62-1.08-1.07-2.16-1.36-3.24-.36-1.18-.62-2.63-.83-4.51-.11-.99,.36-1.94,1.22-2.48,.3-.19,.62-.31,.97-.37v-1.84c0-.74,.6-1.34,1.34-1.34h7.54c1.03,0,2.06,.1,3.05,.3,1.05,.21,2.01,.59,2.86,1.11,.9,.55,1.63,1.29,2.17,2.2,.55,.93,.83,2.06,.83,3.37,0,1.58-.47,2.95-1.4,4.05-.46,.55-1.02,1.02-1.66,1.41,.53,.55,1.02,1.1,1.47,1.66,.02,.02,.54,.7,.77,.99,.31-1.58,.83-3.1,1.56-4.55v-9.19c0-.74,.6-1.34,1.34-1.34h7.88c.84,0,1.71,.08,2.59,.25,.93,.17,1.8,.48,2.58,.91,.84,.46,1.53,1.1,2.06,1.89,.56,.84,.84,1.88,.84,3.09,0,1.37-.41,2.53-1.23,3.45-.12,.14-.24,.27-.38,.39,.31,.21,.59,.45,.84,.71,.48,.48,.86,1.05,1.14,1.7,.29,.66,.43,1.4,.43,2.19,0,1.27-.28,2.37-.84,3.27-.54,.87-1.26,1.59-2.16,2.12-.83,.5-1.78,.86-2.83,1.07-.99,.2-2.02,.3-3.05,.3h-.34c-.49,.84-1.04,1.64-1.66,2.39,1.38,2.03,2.08,4.07,2.08,6.09,0,2.75-.37,5.09-1.11,6.97-.04,.1-.08,.18-.12,.27-.16,.3-.33,.57-.52,.81,.16,.36,.24,.76,.24,1.17,0,1.12-.38,2.07-1.11,2.76-.31,.29-.68,.5-1.08,.62-.63,.19-1.21,.35-1.78,.5-.64,.17-1.18,.32-1.68,.48-.03,0-.13,.04-.16,.04-.9,.23-1.6,.43-2.1,.57-.08,.02-.15,.04-.22,.06-.11,.59-.38,1.09-.79,1.5-.52,.51-1.22,.79-1.96,.79Zm-8.11-39.95c.67,.4,1.4,.88,2.18,1.47,.19-.04,.36-.1,.52-.17,.13-.06,.23-.14,.31-.26,.03-.05,.07-.17,.07-.38s-.04-.29-.04-.29c-.06-.09-.15-.16-.25-.21-.18-.09-.4-.15-.64-.18-.32-.04-.63-.07-.93-.07h-1.22v.09Z"/><path d="M88.56,75.55c-.54,0-1.02-.32-1.23-.82l-1.19-2.85h-5.85l-1.12,2.82c-.2,.51-.69,.84-1.24,.84h-5.19c-.45,0-.87-.23-1.12-.61-.25-.38-.28-.86-.1-1.27l8.29-18.67c.21-.48,.69-.79,1.22-.79h4.64c.53,0,1.01,.31,1.22,.8l8.21,18.67c.18,.41,.14,.89-.1,1.27-.25,.38-.67,.61-1.12,.61h-5.3Zm-4.79-9.95l-.53-1.38-.54,1.38h1.07Z"/><path d="M108.08,75.55c-.45,0-.87-.23-1.12-.61l-5.55-8.51,.07,7.77c0,.36-.14,.7-.39,.95-.25,.25-.59,.4-.95,.4h-4.64c-.74,0-1.34-.6-1.34-1.34v-18.67c0-.74,.6-1.34,1.34-1.34h5.45c.45,0,.87,.23,1.12,.61l5.52,8.48-.07-7.74c0-.36,.14-.7,.39-.95,.25-.25,.59-.4,.95-.4h4.64c.74,0,1.34,.6,1.34,1.34v18.67c0,.74-.6,1.34-1.34,1.34h-5.42Z"/><path d="M35.2,98.18c-.36,0-.7-.14-.95-.4s-.39-.6-.39-.95l.05-6.14-2.58,6.64c-.2,.51-.69,.85-1.25,.85h-3.35c-.56,0-1.05-.34-1.25-.86l-2.44-6.44,.05,5.95c0,.36-.14,.7-.39,.95s-.59,.4-.95,.4h-4.5c-.74,0-1.34-.6-1.34-1.34v-18.67c0-.74,.6-1.34,1.34-1.34h6.79c.56,0,1.05,.35,1.25,.87l3.28,8.73,3.13-8.71c.19-.53,.69-.88,1.26-.88h6.91c.74,0,1.34,.6,1.34,1.34v18.67c0,.74-.6,1.34-1.34,1.34h-4.69Z"/><path d="M77.08,98.18c-.45,0-.87-.23-1.12-.61l-5.55-8.51,.07,7.77c0,.36-.14,.7-.39,.95-.25,.25-.59,.4-.95,.4h-4.64c-.74,0-1.34-.6-1.34-1.34v-18.67c0-.74,.6-1.34,1.34-1.34h5.45c.45,0,.87,.23,1.12,.61l5.52,8.48-.07-7.74c0-.36,.14-.7,.39-.95,.25-.25,.59-.4,.95-.4h4.63c.74,0,1.34,.6,1.34,1.34v18.67c0,.74-.6,1.34-1.34,1.34h-5.42Z"/><path d="M98.64,98.18c-.39,0-.76-.17-1.02-.47l-5.05-5.91v5.04c0,.74-.6,1.34-1.34,1.34h-4.66c-.74,0-1.34-.6-1.34-1.34v-18.67c0-.74,.6-1.34,1.34-1.34h4.66c.74,0,1.34,.6,1.34,1.34v4.29l4.83-5.2c.25-.27,.61-.43,.98-.43h5.98c.54,0,1.03,.32,1.23,.82,.21,.5,.1,1.07-.28,1.45l-7.63,7.7,8.18,9.14c.35,.39,.44,.96,.22,1.44-.21,.48-.69,.79-1.22,.79h-6.23Z"/><path d="M106.43,98.18c-.74,0-1.34-.6-1.34-1.34v-18.67c0-.74,.6-1.34,1.34-1.34h13.29c.74,0,1.34,.6,1.34,1.34v3.8c0,.74-.6,1.34-1.34,1.34h-7.35v.86h6.87c.74,0,1.34,.6,1.34,1.34v3.61c0,.74-.6,1.34-1.34,1.34h-6.87v1.21h7.85c.74,0,1.34,.6,1.34,1.34v3.85c0,.74-.6,1.34-1.34,1.34h-13.79Z"/><path d="M128.21,98.18c-.74,0-1.34-.6-1.34-1.34v-7.5l-7.19-10.42c-.28-.41-.31-.94-.08-1.38,.23-.44,.69-.72,1.18-.72h5.78c.47,0,.9,.24,1.14,.64l3.08,5.04,3.08-5.04c.24-.4,.67-.64,1.14-.64h5.58c.5,0,.96,.28,1.19,.72,.23,.44,.19,.98-.09,1.39l-7.35,10.41v7.49c0,.74-.6,1.34-1.34,1.34h-4.77Z"/></g><g><path d="M27.37,77.72c-1.45,0-2.78-.21-3.96-.63-1.21-.43-2.25-1.04-3.1-1.81-.87-.79-1.54-1.74-2.01-2.84-.46-1.08-.69-2.29-.69-3.59v-11.63c0-.74,.6-1.34,1.34-1.34h4.75c.74,0,1.34,.6,1.34,1.34v11.26c0,.38,.05,.73,.15,1.06,.09,.3,.22,.55,.41,.78,.16,.2,.37,.35,.65,.47,.3,.13,.7,.2,1.17,.2s.88-.07,1.17-.2c.29-.13,.51-.29,.67-.49,.18-.22,.31-.46,.38-.74,.1-.34,.14-.7,.14-1.09v-11.26c0-.74,.6-1.34,1.34-1.34h4.78c.74,0,1.34,.6,1.34,1.34v11.63c0,1.3-.24,2.52-.71,3.6-.48,1.1-1.17,2.05-2.06,2.84-.87,.77-1.93,1.38-3.14,1.8-1.19,.42-2.52,.63-3.95,.63Z"/><path d="M53.83,102.23c-.91,0-1.75-.42-2.35-1.2-.09-.1-.37-.37-.95-.79-.06,.03-.11,.06-.17,.09-.32,.15-.56,.28-.76,.38-.48,.26-1,.54-1.76,.54-1.01,0-1.93-.54-2.4-1.42-.19-.35-.36-.79-.57-2.57l-.05-.3c-.2-1.17-.26-1.56-.26-1.95,0-.88,.36-1.64,.94-2.16-.55-.28-1.06-.58-1.54-.91-.01,0-.07-.05-.09-.06-2.6-1.94-3.14-4.14-3.14-5.64,0-2.87,1.59-5.51,4.71-7.84,.3-.22,.62-.44,.97-.64-.42-.23-.84-.49-1.26-.78-.21,.14-.47,.23-.75,.23h-4.66c-.74,0-1.34-.6-1.34-1.34v-6.23c-.62-1.08-1.07-2.16-1.36-3.24-.36-1.18-.62-2.63-.83-4.51-.11-.99,.36-1.94,1.22-2.48,.3-.19,.62-.31,.97-.37v-1.84c0-.74,.6-1.34,1.34-1.34h7.54c1.03,0,2.06,.1,3.05,.3,1.05,.21,2.01,.59,2.86,1.11,.9,.55,1.63,1.29,2.17,2.2,.55,.93,.83,2.06,.83,3.37,0,1.58-.47,2.95-1.4,4.05-.46,.55-1.02,1.02-1.66,1.41,.53,.55,1.02,1.1,1.47,1.66,.02,.02,.54,.7,.77,.99,.31-1.58,.83-3.1,1.56-4.55v-9.19c0-.74,.6-1.34,1.34-1.34h7.88c.84,0,1.71,.08,2.59,.25,.93,.17,1.8,.48,2.58,.91,.84,.46,1.53,1.1,2.06,1.89,.56,.84,.84,1.88,.84,3.09,0,1.37-.41,2.53-1.23,3.45-.12,.14-.24,.27-.38,.39,.31,.21,.59,.45,.84,.71,.48,.48,.86,1.05,1.14,1.7,.29,.66,.43,1.4,.43,2.19,0,1.27-.28,2.37-.84,3.27-.54,.87-1.26,1.59-2.16,2.12-.83,.5-1.78,.86-2.83,1.07-.99,.2-2.02,.3-3.05,.3h-.34c-.49,.84-1.04,1.64-1.66,2.39,1.38,2.03,2.08,4.07,2.08,6.09,0,2.75-.37,5.09-1.11,6.97-.04,.1-.08,.18-.12,.27-.16,.3-.33,.57-.52,.81,.16,.36,.24,.76,.24,1.17,0,1.12-.38,2.07-1.11,2.76-.31,.29-.68,.5-1.08,.62-.63,.19-1.21,.35-1.78,.5-.64,.17-1.18,.32-1.68,.48-.03,0-.13,.04-.16,.04-.9,.23-1.6,.43-2.1,.57-.08,.02-.15,.04-.22,.06-.11,.59-.38,1.09-.79,1.5-.52,.51-1.22,.79-1.96,.79Zm-8.11-39.95c.67,.4,1.4,.88,2.18,1.47,.19-.04,.36-.1,.52-.17,.13-.06,.23-.14,.31-.26,.03-.05,.07-.17,.07-.38s-.04-.29-.04-.29c-.06-.09-.15-.16-.25-.21-.18-.09-.4-.15-.64-.18-.32-.04-.63-.07-.93-.07h-1.22v.09Z"/><path d="M90.23,77.22c-.54,0-1.02-.32-1.23-.82l-1.19-2.85h-5.85l-1.12,2.82c-.2,.51-.69,.84-1.24,.84h-5.19c-.45,0-.87-.23-1.12-.61-.25-.38-.28-.86-.1-1.27l8.29-18.67c.21-.48,.69-.79,1.22-.79h4.64c.53,0,1.01,.31,1.22,.8l8.21,18.67c.18,.41,.14,.89-.1,1.27-.25,.38-.67,.61-1.12,.61h-5.3Zm-4.79-9.95l-.53-1.38-.54,1.38h1.07Z"/><path d="M109.75,77.22c-.45,0-.87-.23-1.12-.61l-5.55-8.51,.07,7.77c0,.36-.14,.7-.39,.95-.25,.25-.59,.4-.95,.4h-4.64c-.74,0-1.34-.6-1.34-1.34v-18.67c0-.74,.6-1.34,1.34-1.34h5.45c.45,0,.87,.23,1.12,.61l5.52,8.48-.07-7.74c0-.36,.14-.7,.39-.95,.25-.25,.59-.4,.95-.4h4.64c.74,0,1.34,.6,1.34,1.34v18.67c0,.74-.6,1.34-1.34,1.34h-5.42Z"/><path d="M36.87,99.85c-.36,0-.7-.14-.95-.4s-.39-.6-.39-.95l.05-6.14-2.58,6.64c-.2,.51-.69,.85-1.25,.85h-3.35c-.56,0-1.05-.34-1.25-.86l-2.44-6.44,.05,5.95c0,.36-.14,.7-.39,.95s-.59,.4-.95,.4h-4.5c-.74,0-1.34-.6-1.34-1.34v-18.67c0-.74,.6-1.34,1.34-1.34h6.79c.56,0,1.05,.35,1.25,.87l3.28,8.73,3.13-8.71c.19-.53,.69-.88,1.26-.88h6.91c.74,0,1.34,.6,1.34,1.34v18.67c0,.74-.6,1.34-1.34,1.34h-4.69Z"/><path d="M78.75,99.85c-.45,0-.87-.23-1.12-.61l-5.55-8.51,.07,7.77c0,.36-.14,.7-.39,.95-.25,.25-.59,.4-.95,.4h-4.64c-.74,0-1.34-.6-1.34-1.34v-18.67c0-.74,.6-1.34,1.34-1.34h5.45c.45,0,.87,.23,1.12,.61l5.52,8.48-.07-7.74c0-.36,.14-.7,.39-.95,.25-.25,.59-.4,.95-.4h4.63c.74,0,1.34,.6,1.34,1.34v18.67c0,.74-.6,1.34-1.34,1.34h-5.42Z"/><path d="M100.31,99.85c-.39,0-.76-.17-1.02-.47l-5.05-5.91v5.04c0,.74-.6,1.34-1.34,1.34h-4.66c-.74,0-1.34-.6-1.34-1.34v-18.67c0-.74,.6-1.34,1.34-1.34h4.66c.74,0,1.34,.6,1.34,1.34v4.29l4.83-5.2c.25-.27,.61-.43,.98-.43h5.98c.54,0,1.03,.32,1.23,.82,.21,.5,.1,1.07-.28,1.45l-7.63,7.7,8.18,9.14c.35,.39,.44,.96,.22,1.44-.21,.48-.69,.79-1.22,.79h-6.23Z"/><path d="M108.1,99.85c-.74,0-1.34-.6-1.34-1.34v-18.67c0-.74,.6-1.34,1.34-1.34h13.29c.74,0,1.34,.6,1.34,1.34v3.8c0,.74-.6,1.34-1.34,1.34h-7.35v.86h6.87c.74,0,1.34,.6,1.34,1.34v3.61c0,.74-.6,1.34-1.34,1.34h-6.87v1.21h7.85c.74,0,1.34,.6,1.34,1.34v3.85c0,.74-.6,1.34-1.34,1.34h-13.79Z"/><path d="M129.88,99.85c-.74,0-1.34-.6-1.34-1.34v-7.5l-7.19-10.42c-.28-.41-.31-.94-.08-1.38,.23-.44,.69-.72,1.18-.72h5.78c.47,0,.9,.24,1.14,.64l3.08,5.04,3.08-5.04c.24-.4,.67-.64,1.14-.64h5.58c.5,0,.96,.28,1.19,.72,.23,.44,.19,.98-.09,1.39l-7.35,10.41v7.49c0,.74-.6,1.34-1.34,1.34h-4.77Z"/></g><g><path class="cls-2" d="M19.53,72.62c.73,.66,1.61,1.17,2.65,1.54,1.04,.37,2.22,.55,3.52,.55s2.45-.18,3.5-.55c1.05-.37,1.95-.88,2.69-1.54,.74-.66,1.32-1.45,1.72-2.37,.4-.92,.6-1.95,.6-3.07v-11.63h-4.78v11.26c0,.51-.07,.99-.2,1.45-.13,.46-.34,.87-.64,1.23-.3,.36-.68,.65-1.16,.86-.47,.21-1.05,.32-1.72,.32s-1.24-.11-1.72-.32c-.47-.21-.86-.5-1.15-.86-.29-.36-.5-.77-.64-1.23-.14-.46-.21-.94-.21-1.45v-11.26h-4.75v11.63c0,1.13,.2,2.15,.59,3.07,.39,.92,.95,1.71,1.68,2.37Z"/><path class="cls-2" d="M64.46,74.21c.95,0,1.88-.09,2.78-.28,.9-.18,1.71-.49,2.42-.91,.71-.42,1.28-.98,1.7-1.67,.43-.69,.64-1.55,.64-2.57,0-.62-.11-1.17-.32-1.66-.21-.49-.5-.92-.87-1.29-.36-.37-.79-.67-1.28-.91-.49-.24-1.02-.4-1.58-.49v-.05c.97-.3,1.75-.79,2.35-1.46,.6-.68,.89-1.53,.89-2.57,0-.95-.21-1.73-.61-2.35-.41-.62-.94-1.1-1.59-1.46-.65-.36-1.38-.62-2.18-.76-.8-.15-1.58-.22-2.35-.22h-7.87v9.51c-1.23,2.35-1.87,4.89-1.91,7.62-.81-1-1.73-2.17-2.77-3.51l-.02-.02c-.8-.98-1.72-1.95-2.79-2.94,1.27-.37,2.27-.98,2.99-1.84,.73-.86,1.09-1.93,1.09-3.19,0-1.07-.21-1.97-.64-2.69-.43-.72-1-1.3-1.72-1.74-.72-.44-1.53-.75-2.43-.94-.9-.18-1.83-.28-2.78-.28h-7.54v3.39l-.03-.02-.15-.08c-.21-.11-.43-.16-.66-.16-.26,0-.52,.07-.75,.21-.42,.26-.65,.73-.6,1.2,.2,1.8,.45,3.17,.79,4.31,.28,1.07,.75,2.13,1.4,3.22v6.59h4.66v-1.16c1.18,1.02,2.36,1.79,3.54,2.31,.6,.27,1.19,.52,1.74,.76-1.37,.43-2.54,1-3.45,1.68-2.77,2.06-4.17,4.34-4.17,6.77,0,1.2,.45,2.96,2.61,4.57,.01,.01,.03,.02,.04,.03,1.12,.77,2.44,1.38,3.95,1.84-.07,.31-.1,.63-.1,.96,0,.09,0,.19,0,.28-.04-.02-.07-.04-.09-.05-.08-.07-.17-.12-.27-.17-.19-.09-.47-.2-.83-.2-.74,0-1.49,.52-1.49,1.52,0,.28,.06,.66,.24,1.73l.06,.37c.2,1.68,.34,1.96,.42,2.1,.23,.43,.7,.71,1.22,.71,.42,0,.71-.16,1.11-.37,.21-.11,.48-.26,.83-.42,.04-.02,.07-.04,.1-.05,.31-.18,.55-.3,.71-.38,.15,.09,.38,.23,.71,.47,.74,.54,1.08,.89,1.19,1.01,.36,.48,.81,.72,1.33,.72,.39,0,.75-.15,1.02-.41,.42-.41,.46-.93,.44-1.29,0-.12,0-.22,0-.33,.24-.02,.5-.09,1.15-.28,.51-.15,1.22-.34,2.16-.59,.02,0,.05-.01,.07-.02,.52-.16,1.09-.32,1.69-.48,.57-.15,1.15-.31,1.78-.5,.21-.06,.39-.17,.55-.32,.46-.43,.69-1.03,.69-1.79,0-.55-.27-1.02-.68-1.3,.45-.31,.82-.74,1.12-1.31,.02-.04,.04-.08,.06-.13,.67-1.72,1.01-3.89,1.01-6.48,0-2.02-.83-4.09-2.46-6.17,1.04-1.09,1.9-2.31,2.58-3.64h1.13Zm2.76-5.85c0,.46-.1,.83-.31,1.12-.21,.29-.47,.51-.8,.67-.33,.16-.69,.27-1.09,.33-.12,.02-.23,.03-.35,.04,.02-.07,.04-.13,.05-.2,.27-1.09,.47-2.38,.6-3.89,.36,.07,.69,.17,.97,.31,.61,.3,.92,.84,.92,1.61Zm-.64-7.41c0,.67-.25,1.17-.74,1.52-.1,.07-.21,.13-.33,.18,0-.36,0-.72,0-1.1,0-.14,0-.32,.02-.52,.02-.33,.04-.75,.04-1.23v-.33c.08,.03,.16,.06,.23,.1,.51,.29,.77,.75,.77,1.38Zm-5.18-1.82c-.07,.06-.13,.12-.2,.18v-.18h.2Zm-18.69,.05h2.55c.36,0,.72,.03,1.11,.08,.38,.05,.73,.15,1.04,.3,.31,.15,.56,.36,.76,.63,.2,.27,.29,.63,.29,1.07,0,.47-.11,.86-.32,1.16-.22,.3-.49,.53-.83,.69-.34,.16-.71,.27-1.12,.33-.11,.02-.22,.02-.32,.04-1.09-.84-2.02-1.46-2.88-1.94-.09-.05-.18-.1-.27-.15v-2.21Z"/><path class="cls-2" d="M79.37,70.54h7.65l1.54,3.67h5.31l-8.21-18.67h-4.64l-8.29,18.67h5.19l1.45-3.67Zm3.88-10.02l2.46,6.41h-4.97l2.51-6.41Z"/><polygon class="cls-2" points="100.04 62 100.12 62 108.08 74.21 113.5 74.21 113.5 55.54 108.86 55.54 108.97 67.72 108.89 67.72 100.96 55.54 95.51 55.54 95.51 74.21 100.15 74.21 100.04 62"/><polygon class="cls-2" points="28.68 90.14 28.57 90.14 24.07 78.17 17.27 78.17 17.27 96.84 21.77 96.84 21.66 83.63 21.74 83.63 26.74 96.84 30.09 96.84 35.23 83.63 35.31 83.63 35.2 96.84 39.89 96.84 39.89 78.17 32.98 78.17 28.68 90.14"/><polygon class="cls-2" points="77.97 90.35 77.89 90.35 69.96 78.17 64.51 78.17 64.51 96.84 69.15 96.84 69.04 84.63 69.12 84.63 77.08 96.84 82.5 96.84 82.5 78.17 77.86 78.17 77.97 90.35"/><polygon class="cls-2" points="104.36 78.17 98.39 78.17 91.32 85.76 91.24 85.76 91.24 78.17 86.57 78.17 86.57 96.84 91.24 96.84 91.24 88.24 91.29 88.24 98.64 96.84 104.86 96.84 95.84 86.77 104.36 78.17"/><polygon class="cls-2" points="111.04 89.11 119.24 89.11 119.24 85.5 111.04 85.5 111.04 81.97 119.72 81.97 119.72 78.17 106.43 78.17 106.43 96.84 120.22 96.84 120.22 92.99 111.04 92.99 111.04 89.11"/><polygon class="cls-2" points="134.99 78.17 130.78 85.08 126.56 78.17 120.78 78.17 128.21 88.93 128.21 96.84 132.98 96.84 132.98 88.93 140.58 78.17 134.99 78.17"/></g><g><path class="cls-5" d="M19.53,72.62c.73,.66,1.61,1.17,2.65,1.54,1.04,.37,2.22,.55,3.52,.55s2.45-.18,3.5-.55c1.05-.37,1.95-.88,2.69-1.54,.74-.66,1.32-1.45,1.72-2.37,.4-.92,.6-1.95,.6-3.07v-11.63h-4.78v11.26c0,.51-.07,.99-.2,1.45-.13,.46-.34,.87-.64,1.23-.3,.36-.68,.65-1.16,.86-.47,.21-1.05,.32-1.72,.32s-1.24-.11-1.72-.32c-.47-.21-.86-.5-1.15-.86-.29-.36-.5-.77-.64-1.23-.14-.46-.21-.94-.21-1.45v-11.26h-4.75v11.63c0,1.13,.2,2.15,.59,3.07,.39,.92,.95,1.71,1.68,2.37Z"/><path class="cls-5" d="M64.46,74.21c.95,0,1.88-.09,2.78-.28,.9-.18,1.71-.49,2.42-.91,.71-.42,1.28-.98,1.7-1.67,.43-.69,.64-1.55,.64-2.57,0-.62-.11-1.17-.32-1.66-.21-.49-.5-.92-.87-1.29-.36-.37-.79-.67-1.28-.91-.49-.24-1.02-.4-1.58-.49v-.05c.97-.3,1.75-.79,2.35-1.46,.6-.68,.89-1.53,.89-2.57,0-.95-.21-1.73-.61-2.35-.41-.62-.94-1.1-1.59-1.46-.65-.36-1.38-.62-2.18-.76-.8-.15-1.58-.22-2.35-.22h-7.87v9.51c-1.23,2.35-1.87,4.89-1.91,7.62-.81-1-1.73-2.17-2.77-3.51l-.02-.02c-.8-.98-1.72-1.95-2.79-2.94,1.27-.37,2.27-.98,2.99-1.84,.73-.86,1.09-1.93,1.09-3.19,0-1.07-.21-1.97-.64-2.69-.43-.72-1-1.3-1.72-1.74-.72-.44-1.53-.75-2.43-.94-.9-.18-1.83-.28-2.78-.28h-7.54v3.39l-.03-.02-.15-.08c-.21-.11-.43-.16-.66-.16-.26,0-.52,.07-.75,.21-.42,.26-.65,.73-.6,1.2,.2,1.8,.45,3.17,.79,4.31,.28,1.07,.75,2.13,1.4,3.22v6.59h4.66v-1.16c1.18,1.02,2.36,1.79,3.54,2.31,.6,.27,1.19,.52,1.74,.76-1.37,.43-2.54,1-3.45,1.68-2.77,2.06-4.17,4.34-4.17,6.77,0,1.2,.45,2.96,2.61,4.57,.01,.01,.03,.02,.04,.03,1.12,.77,2.44,1.38,3.95,1.84-.07,.31-.1,.63-.1,.96,0,.09,0,.19,0,.28-.04-.02-.07-.04-.09-.05-.08-.07-.17-.12-.27-.17-.19-.09-.47-.2-.83-.2-.74,0-1.49,.52-1.49,1.52,0,.28,.06,.66,.24,1.73l.06,.37c.2,1.68,.34,1.96,.42,2.1,.23,.43,.7,.71,1.22,.71,.42,0,.71-.16,1.11-.37,.21-.11,.48-.26,.83-.42,.04-.02,.07-.04,.1-.05,.31-.18,.55-.3,.71-.38,.15,.09,.38,.23,.71,.47,.74,.54,1.08,.89,1.19,1.01,.36,.48,.81,.72,1.33,.72,.39,0,.75-.15,1.02-.41,.42-.41,.46-.93,.44-1.29,0-.12,0-.22,0-.33,.24-.02,.5-.09,1.15-.28,.51-.15,1.22-.34,2.16-.59,.02,0,.05-.01,.07-.02,.52-.16,1.09-.32,1.69-.48,.57-.15,1.15-.31,1.78-.5,.21-.06,.39-.17,.55-.32,.46-.43,.69-1.03,.69-1.79,0-.55-.27-1.02-.68-1.3,.45-.31,.82-.74,1.12-1.31,.02-.04,.04-.08,.06-.13,.67-1.72,1.01-3.89,1.01-6.48,0-2.02-.83-4.09-2.46-6.17,1.04-1.09,1.9-2.31,2.58-3.64h1.13Zm2.76-5.85c0,.46-.1,.83-.31,1.12-.21,.29-.47,.51-.8,.67-.33,.16-.69,.27-1.09,.33-.12,.02-.23,.03-.35,.04,.02-.07,.04-.13,.05-.2,.27-1.09,.47-2.38,.6-3.89,.36,.07,.69,.17,.97,.31,.61,.3,.92,.84,.92,1.61Zm-.64-7.41c0,.67-.25,1.17-.74,1.52-.1,.07-.21,.13-.33,.18,0-.36,0-.72,0-1.1,0-.14,0-.32,.02-.52,.02-.33,.04-.75,.04-1.23v-.33c.08,.03,.16,.06,.23,.1,.51,.29,.77,.75,.77,1.38Zm-5.18-1.82c-.07,.06-.13,.12-.2,.18v-.18h.2Zm-18.69,.05h2.55c.36,0,.72,.03,1.11,.08,.38,.05,.73,.15,1.04,.3,.31,.15,.56,.36,.76,.63,.2,.27,.29,.63,.29,1.07,0,.47-.11,.86-.32,1.16-.22,.3-.49,.53-.83,.69-.34,.16-.71,.27-1.12,.33-.11,.02-.22,.02-.32,.04-1.09-.84-2.02-1.46-2.88-1.94-.09-.05-.18-.1-.27-.15v-2.21Z"/><path class="cls-5" d="M79.37,70.54h7.65l1.54,3.67h5.31l-8.21-18.67h-4.64l-8.29,18.67h5.19l1.45-3.67Zm3.88-10.02l2.46,6.41h-4.97l2.51-6.41Z"/><polygon class="cls-5" points="100.04 62 100.12 62 108.08 74.21 113.5 74.21 113.5 55.54 108.86 55.54 108.97 67.72 108.89 67.72 100.96 55.54 95.51 55.54 95.51 74.21 100.15 74.21 100.04 62"/><polygon class="cls-5" points="28.68 90.14 28.57 90.14 24.07 78.17 17.27 78.17 17.27 96.84 21.77 96.84 21.66 83.63 21.74 83.63 26.74 96.84 30.09 96.84 35.23 83.63 35.31 83.63 35.2 96.84 39.89 96.84 39.89 78.17 32.98 78.17 28.68 90.14"/><polygon class="cls-5" points="77.97 90.35 77.89 90.35 69.96 78.17 64.51 78.17 64.51 96.84 69.15 96.84 69.04 84.63 69.12 84.63 77.08 96.84 82.5 96.84 82.5 78.17 77.86 78.17 77.97 90.35"/><polygon class="cls-5" points="104.36 78.17 98.39 78.17 91.32 85.76 91.24 85.76 91.24 78.17 86.57 78.17 86.57 96.84 91.24 96.84 91.24 88.24 91.29 88.24 98.64 96.84 104.86 96.84 95.84 86.77 104.36 78.17"/><polygon class="cls-5" points="111.04 89.11 119.24 89.11 119.24 85.5 111.04 85.5 111.04 81.97 119.72 81.97 119.72 78.17 106.43 78.17 106.43 96.84 120.22 96.84 120.22 92.99 111.04 92.99 111.04 89.11"/><polygon class="cls-5" points="134.99 78.17 130.78 85.08 126.56 78.17 120.78 78.17 128.21 88.93 128.21 96.84 132.98 96.84 132.98 88.93 140.58 78.17 134.99 78.17"/></g></g><g><path class="cls-2" d="M52.16,99.22c-.52,0-.97-.24-1.33-.72-.11-.13-.45-.48-1.19-1.01-.32-.24-.55-.38-.71-.47-.17,.08-.4,.2-.71,.38-.03,.02-.07,.04-.1,.05-.36,.17-.62,.31-.83,.42-.4,.21-.69,.37-1.11,.37-.51,0-.99-.27-1.22-.71-.08-.15-.22-.42-.42-2.1l-.06-.37c-.18-1.07-.24-1.45-.24-1.73,0-1,.75-1.52,1.49-1.52,.35,0,.64,.12,.83,.2,.1,.05,.19,.1,.27,.17,.02,.01,.05,.03,.09,.05,0-.09,0-.18,0-.28,0-.33,.03-.66,.1-.96-1.51-.45-2.84-1.07-3.95-1.84-.01-.01-.03-.02-.04-.03-2.15-1.61-2.61-3.37-2.61-4.57,0-2.43,1.4-4.7,4.17-6.77,.91-.68,2.08-1.25,3.45-1.68-.56-.23-1.14-.49-1.74-.76-1.9-.84-3.82-2.33-5.68-4.44-2.08-2.26-3.37-4.4-3.93-6.53-.34-1.14-.6-2.52-.79-4.31-.05-.48,.18-.94,.6-1.2,.23-.14,.49-.21,.75-.21,.23,0,.45,.05,.66,.16l.15,.08c2.11,1.1,3.78,1.97,4.94,2.63,1.32,.73,2.78,1.79,4.73,3.43,1.68,1.43,3.04,2.79,4.18,4.17l.02,.02c1.04,1.33,1.96,2.5,2.77,3.51,.09-5.96,3.02-11.05,8.72-15.12,.24-.17,.53-.26,.82-.26,.21,0,.41,.04,.61,.13,.46,.22,.75,.66,.75,1.15v1.21c0,.48-.02,.9-.04,1.23-.01,.21-.02,.38-.02,.52,0,3.79-.26,6.66-.79,8.78-.66,2.91-2,5.44-3.99,7.53,1.63,2.08,2.46,4.15,2.46,6.17,0,2.58-.34,4.76-1.01,6.48-.02,.04-.04,.09-.06,.13-.3,.57-.67,1-1.12,1.31,.42,.28,.68,.74,.68,1.3,0,.75-.23,1.35-.69,1.79-.15,.14-.34,.25-.55,.32-.63,.19-1.21,.35-1.78,.5-.6,.16-1.16,.32-1.69,.48-.02,0-.05,.01-.07,.02-.94,.24-1.64,.44-2.16,.59-.64,.18-.91,.26-1.15,.28,0,.1,0,.2,0,.33,.01,.36-.02,.88-.44,1.29-.27,.26-.64,.41-1.02,.41Zm-4.36-18.19c-.12,0-.21,.09-.21,.2s.09,.2,.21,.2,.21-.09,.21-.2-.09-.2-.21-.2Z"/><path d="M64.22,58.58v1.21c0,.77-.06,1.37-.06,1.75,0,3.56-.23,6.41-.75,8.5-.7,3.07-2.15,5.54-4.24,7.51-.17,.16-.17,.33,.06,.55,1.68,1.97,2.61,3.95,2.61,5.92,0,2.52-.35,4.55-.93,6.03-.17,.33-.41,.66-.75,.88-1.22,.77-3.42,1.64-6.44,2.69-.23,.05-.35-.05-.35-.22,0-.05,.06-.55,.17-1.43,0-.22-.06-.33-.12-.38-.12-.05-.35,0-.64,.16-2.61,1.32-3.95,1.97-3.95,1.97-.41-.55-.58-1.15-.58-1.75,0-.77,.23-1.37,.64-1.81-2.09-.44-3.77-1.15-5.05-2.03-1.39-1.04-2.09-2.25-2.09-3.56,0-1.97,1.19-3.92,3.66-5.76,1.69-1.26,4.47-2.06,7.55-2.3-1.63-.44-3.66-1.21-6.1-2.3-1.74-.77-3.48-2.14-5.22-4.11-1.92-2.08-3.13-4.06-3.66-6.03-.35-1.15-.58-2.52-.75-4.11,2.21,1.15,3.89,2.03,5.05,2.69,1.39,.77,2.9,1.92,4.53,3.29,1.74,1.48,3.02,2.8,4.01,4,2.26,2.91,4.01,5.04,5.22,6.52v-3.51c0-5.7,2.73-10.47,8.18-14.36Zm-11.96,38.98c.01,.44-.12,.49-.35,.16-.23-.27-.7-.71-1.45-1.26-.75-.55-1.28-.82-1.51-.82-.17,0-.7,.22-1.45,.66-.81,.38-1.22,.66-1.34,.66-.06-.11-.17-.71-.29-1.7-.17-1.04-.29-1.7-.29-1.92,0-.27,.12-.27,.35-.16,.12,.11,.64,.38,1.57,.77,.93,.38,1.45,.6,1.63,.6,.06,0,.58-.22,1.45-.71,.87-.44,1.39-.71,1.45-.71,0,.05,.12,2.11,.08,1.42,0-.04,.04,.45,.1,1.49,.05,.88,.04,1.07,.06,1.53Zm8.07-4.33c0,.44-.12,.71-.29,.88-1.28,.38-2.44,.66-3.48,.99-1.92,.49-2.9,.82-3.08,.82-.12,0-.17-.11-.17-.27,0-.38,.06-.66,.23-.82,1.1-.38,2.15-.66,3.08-.93,1.8-.6,2.96-.93,3.48-.93,.17,0,.23,.11,.23,.27Zm-12.54-13.49c-.87,0-1.57,.66-1.57,1.48s.7,1.48,1.57,1.48,1.57-.66,1.57-1.48-.7-1.48-1.57-1.48Z"/></g></g><polyline class="cls-3" points="107.08 50.44 121.22 50.44 121.22 72.41"/><polyline class="cls-4" points="11.81 88.86 11.81 104.22 46.17 104.22"/></svg>