<?xml version="1.0" encoding="UTF-8"?><svg id="Layer_1" xmlns="http://www.w3.org/2000/svg" viewBox="0 0 150.1 150.11"><defs><style>.cls-1,.cls-2{fill:#fff;}.cls-1,.cls-3,.cls-4{stroke:#000201;stroke-linecap:round;}.cls-1,.cls-4{stroke-miterlimit:10;stroke-width:.75px;}.cls-5{stroke:#000;stroke-width:.75px;}.cls-5,.cls-3,.cls-6,.cls-4{fill:none;}.cls-7{fill:#000201;}.cls-3{stroke-dasharray:0 0 0 0 0 0 0 0 0 0 0 3;stroke-linejoin:round;}</style></defs><g><g><line class="cls-1" x1="13.04" y1="61.31" x2="15.5" y2="61.31"/><line class="cls-1" x1="8.19" y1="61.31" x2="10.65" y2="61.31"/></g><g><line class="cls-1" x1="11.84" y1="60.13" x2="11.84" y2="57.71"/><line class="cls-1" x1="11.84" y1="64.9" x2="11.84" y2="62.48"/></g></g><rect class="cls-6" x=".24" y="-1.1" width="149.61" height="149.62"/><rect class="cls-6" x="10.24" y="8.91" width="129.62" height="129.61" transform="translate(148.76 -1.34) rotate(90)"/><circle class="cls-7" cx="26.46" cy="115.77" r=".41"/><g><g><path d="M30.32,107.8h-13.82c-.03-.39-.07-.76-.07-1.13,0-13.28,.01-26.55-.02-39.83,0-1.01,.33-1.22,1.32-1.2,3.78,.05,7.57,.03,11.36,.03,.4,0,.8,0,1.26,0v5.98h-7.5v30.14h1.22v-28.79h6.26v34.81Z"/><path d="M83.88,101.79h1.19v-28.82h6.28v34.76h-13.8v-42h13.82v5.87h-7.49v30.19Z"/><path d="M115.6,107.77v-36.06h-1.26v36.04h-6.29v-42.01h13.81v42.03h-6.26Z"/><path d="M99.08,107.79h-6.26v-42.07h13.75v42.05h-6.2v-14.34l-1.29-.05v14.41Zm1.19-20.47v-15.66l-1.18,.05v15.6h1.18Z"/><path d="M39.34,65.72h6.23v42.04c-.25,.03-.43,.07-.6,.07-4.12,0-8.24,0-12.35,.02-.67,0-.91-.18-.91-.84,.02-13.63,.02-27.25,.02-40.88,0-.1,.03-.2,.07-.39h6.22c0,.42,0,.82,0,1.23,0,11.13,0,22.25,0,33.38,0,.32-.07,.66,.03,.94,.08,.22,.42,.54,.59,.51,.26-.05,.56-.31,.68-.55,.12-.23,.03-.55,.03-.83,0-11.16,0-22.32,0-33.48,0-.38,0-.77,0-1.21Z"/><path d="M123.28,107.76v-42.01h13.82v5.89h-7.48v30.11h1.23v-28.77h6.25v34.79h-13.82Z"/><path d="M76.05,107.79h-13.73v-5.93h7.45v-8.49h-7.49v-27.63h6.25v21.57h1.27v-21.57h6.24v42.05Z"/><path d="M60.89,101.85c0,1.9,.02,3.58-.03,5.27,0,.24-.35,.68-.54,.68-4.4,.04-8.81,.03-13.29,.03v-42.09h6.26c0,.38,0,.79,0,1.19,0,11.23,.01,22.46-.02,33.69,0,.95,.23,1.29,1.28,1.25,2.06-.08,4.13-.02,6.33-.02Z"/><path d="M54.67,65.72h6.21v28.86h7.58v5.95h-13.79v-34.81Z"/></g><g><path d="M16.51,109.13c-.7,0-1.29-.54-1.33-1.25l-.03-.35c-.03-.29-.05-.58-.05-.87v-9.96c0-9.96,0-19.91-.02-29.86,0-.54,.06-1.32,.64-1.9,.57-.57,1.33-.64,1.93-.64h.11c1.9,.03,3.81,.03,5.71,.03h6.88c.74,0,1.34,.59,1.34,1.33v5.98c0,.25-.07,.49-.19,.69,.11,.19,.17,.42,.17,.65v34.81c0,.74-.6,1.34-1.34,1.34h-13.82Z"/><path d="M77.55,109.07c-.74,0-1.34-.6-1.34-1.34v-42c0-.74,.6-1.34,1.34-1.34h13.82c.74,0,1.34,.6,1.34,1.34v5.87c0,.25-.07,.49-.19,.69,.11,.2,.18,.42,.18,.67v34.76c0,.74-.6,1.34-1.34,1.34h-13.8Z"/><path d="M115.6,109.1c-.23,0-.46-.06-.65-.17-.18,.09-.39,.15-.61,.15h-6.29c-.74,0-1.34-.6-1.34-1.34v-42.01c0-.74,.6-1.34,1.34-1.34h13.81c.74,0,1.34,.6,1.34,1.34v42.03c0,.74-.6,1.34-1.34,1.34h-6.26Z"/><path d="M92.82,109.12c-.74,0-1.34-.6-1.34-1.34v-42.07c0-.74,.6-1.34,1.34-1.34h13.75c.74,0,1.34,.6,1.34,1.34v42.05c0,.74-.6,1.34-1.34,1.34h-6.2c-.23,0-.44-.06-.62-.16-.2,.11-.42,.18-.66,.18h-6.26Z"/><path d="M32.58,109.18c-.46,0-1.13-.06-1.65-.58-.58-.58-.57-1.34-.57-1.59,.01-10.48,.02-20.97,.02-31.45v-9.42c0-.21,.04-.38,.07-.51l.02-.12c.12-.63,.67-1.1,1.31-1.1h6.22c.23,0,.45,.06,.65,.17,.2-.12,.43-.19,.68-.19h6.23c.74,0,1.34,.6,1.34,1.34v42.04c0,.68-.51,1.25-1.19,1.33l-.2,.03c-.21,.03-.38,.05-.55,.05h-5.14c-2.4,0-4.81,0-7.21,.02h-.03Z"/><path d="M123.28,109.1c-.74,0-1.34-.6-1.34-1.34v-42.01c0-.74,.6-1.34,1.34-1.34h13.82c.74,0,1.34,.6,1.34,1.34v5.89c0,.24-.07,.47-.18,.67,.11,.2,.18,.42,.18,.67v34.79c0,.74-.6,1.34-1.34,1.34h-13.82Z"/><path d="M62.32,109.12c-.74,0-1.34-.6-1.34-1.34v-5.93c0-.74,.6-1.34,1.34-1.34h6.12v-5.81h-6.15c-.74,0-1.34-.6-1.34-1.34v-27.63c0-.74,.6-1.34,1.34-1.34h6.25c.23,0,.45,.06,.64,.16,.19-.1,.41-.16,.64-.16h6.24c.74,0,1.34,.6,1.34,1.34v42.05c0,.74-.6,1.34-1.34,1.34h-13.73Z"/><path d="M47.03,109.17c-.74,0-1.34-.6-1.34-1.34v-42.09c0-.74,.6-1.34,1.34-1.34h6.26c.74,0,1.34,.6,1.34,1.34v8.16c0,8.88,0,17.75-.02,26.63,.84-.03,1.68-.04,2.53-.04,.61,0,1.22,0,1.84,0,.63,0,1.27,0,1.91,0,.74,0,1.34,.6,1.34,1.34v1.37c0,1.37,.01,2.66-.03,3.94-.02,.89-.86,1.97-1.86,1.98-3.04,.03-6.08,.03-9.15,.03h-4.15Z"/><path d="M54.67,101.87c-.74,0-1.34-.6-1.34-1.34v-34.81c0-.74,.6-1.34,1.34-1.34h6.21c.74,0,1.34,.6,1.34,1.34v27.52h6.25c.74,0,1.34,.6,1.34,1.34v5.95c0,.74-.6,1.34-1.34,1.34h-13.79Z"/></g><g><path d="M18.18,110.8c-.7,0-1.29-.54-1.33-1.25l-.03-.35c-.03-.29-.05-.58-.05-.87v-9.96c0-9.96,0-19.91-.02-29.86,0-.54,.06-1.32,.64-1.9,.57-.57,1.33-.64,1.93-.64h.11c1.9,.03,3.81,.03,5.71,.03h6.88c.74,0,1.34,.59,1.34,1.33v5.98c0,.25-.07,.49-.19,.69,.11,.19,.17,.42,.17,.65v34.81c0,.74-.6,1.34-1.34,1.34h-13.82Z"/><path d="M79.22,110.74c-.74,0-1.34-.6-1.34-1.34v-42c0-.74,.6-1.34,1.34-1.34h13.82c.74,0,1.34,.6,1.34,1.34v5.87c0,.25-.07,.49-.19,.69,.11,.2,.18,.42,.18,.67v34.76c0,.74-.6,1.34-1.34,1.34h-13.8Z"/><path d="M117.27,110.77c-.23,0-.46-.06-.65-.17-.18,.09-.39,.15-.61,.15h-6.29c-.74,0-1.34-.6-1.34-1.34v-42.01c0-.74,.6-1.34,1.34-1.34h13.81c.74,0,1.34,.6,1.34,1.34v42.03c0,.74-.6,1.34-1.34,1.34h-6.26Z"/><path d="M94.49,110.79c-.74,0-1.34-.6-1.34-1.34v-42.07c0-.74,.6-1.34,1.34-1.34h13.75c.74,0,1.34,.6,1.34,1.34v42.05c0,.74-.6,1.34-1.34,1.34h-6.2c-.23,0-.44-.06-.62-.16-.2,.11-.42,.18-.66,.18h-6.26Z"/><path d="M34.25,110.85c-.46,0-1.13-.06-1.65-.58-.58-.58-.57-1.34-.57-1.59,.01-10.48,.02-20.97,.02-31.45v-9.42c0-.21,.04-.38,.07-.51l.02-.12c.12-.63,.67-1.1,1.31-1.1h6.22c.23,0,.45,.06,.65,.17,.2-.12,.43-.19,.68-.19h6.23c.74,0,1.34,.6,1.34,1.34v42.04c0,.68-.51,1.25-1.19,1.33l-.2,.03c-.21,.03-.38,.05-.55,.05h-5.14c-2.4,0-4.81,0-7.21,.02h-.03Z"/><path d="M124.95,110.77c-.74,0-1.34-.6-1.34-1.34v-42.01c0-.74,.6-1.34,1.34-1.34h13.82c.74,0,1.34,.6,1.34,1.34v5.89c0,.24-.07,.47-.18,.67,.11,.2,.18,.42,.18,.67v34.79c0,.74-.6,1.34-1.34,1.34h-13.82Z"/><path d="M63.99,110.79c-.74,0-1.34-.6-1.34-1.34v-5.93c0-.74,.6-1.34,1.34-1.34h6.12v-5.81h-6.15c-.74,0-1.34-.6-1.34-1.34v-27.63c0-.74,.6-1.34,1.34-1.34h6.25c.23,0,.45,.06,.64,.16,.19-.1,.41-.16,.64-.16h6.24c.74,0,1.34,.6,1.34,1.34v42.05c0,.74-.6,1.34-1.34,1.34h-13.73Z"/><path d="M48.7,110.84c-.74,0-1.34-.6-1.34-1.34v-42.09c0-.74,.6-1.34,1.34-1.34h6.26c.74,0,1.34,.6,1.34,1.34v8.16c0,8.88,0,17.75-.02,26.63,.84-.03,1.68-.04,2.53-.04,.61,0,1.22,0,1.84,0,.63,0,1.27,0,1.91,0,.74,0,1.34,.6,1.34,1.34v1.37c0,1.37,.01,2.66-.03,3.94-.02,.89-.86,1.97-1.86,1.98-3.04,.03-6.08,.03-9.15,.03h-4.15Z"/><path d="M56.34,103.54c-.74,0-1.34-.6-1.34-1.34v-34.81c0-.74,.6-1.34,1.34-1.34h6.21c.74,0,1.34,.6,1.34,1.34v27.52h6.25c.74,0,1.34,.6,1.34,1.34v5.95c0,.74-.6,1.34-1.34,1.34h-13.79Z"/></g><g><path class="cls-2" d="M30.32,107.8h-13.82c-.03-.39-.07-.76-.07-1.13,0-13.28,.01-26.55-.02-39.83,0-1.01,.33-1.22,1.32-1.2,3.78,.05,7.57,.03,11.36,.03,.4,0,.8,0,1.26,0v5.98h-7.5v30.14h1.22v-28.79h6.26v34.81Z"/><path class="cls-2" d="M83.88,101.79h1.19v-28.82h6.28v34.76h-13.8v-42h13.82v5.87h-7.49v30.19Z"/><path class="cls-2" d="M115.6,107.77v-36.06h-1.26v36.04h-6.29v-42.01h13.81v42.03h-6.26Z"/><path class="cls-2" d="M99.08,107.79h-6.26v-42.07h13.75v42.05h-6.2v-14.34l-1.29-.05v14.41Zm1.19-20.47v-15.66l-1.18,.05v15.6h1.18Z"/><path class="cls-2" d="M39.34,65.72h6.23v42.04c-.25,.03-.43,.07-.6,.07-4.12,0-8.24,0-12.35,.02-.67,0-.91-.18-.91-.84,.02-13.63,.02-27.25,.02-40.88,0-.1,.03-.2,.07-.39h6.22c0,.42,0,.82,0,1.23,0,11.13,0,22.25,0,33.38,0,.32-.07,.66,.03,.94,.08,.22,.42,.54,.59,.51,.26-.05,.56-.31,.68-.55,.12-.23,.03-.55,.03-.83,0-11.16,0-22.32,0-33.48,0-.38,0-.77,0-1.21Z"/><path class="cls-2" d="M123.28,107.76v-42.01h13.82v5.89h-7.48v30.11h1.23v-28.77h6.25v34.79h-13.82Z"/><path class="cls-2" d="M76.05,107.79h-13.73v-5.93h7.45v-8.49h-7.49v-27.63h6.25v21.57h1.27v-21.57h6.24v42.05Z"/><path class="cls-2" d="M60.89,101.85c0,1.9,.02,3.58-.03,5.27,0,.24-.35,.68-.54,.68-4.4,.04-8.81,.03-13.29,.03v-42.09h6.26c0,.38,0,.79,0,1.19,0,11.23,.01,22.46-.02,33.69,0,.95,.23,1.29,1.28,1.25,2.06-.08,4.13-.02,6.33-.02Z"/><path class="cls-2" d="M54.67,65.72h6.21v28.86h7.58v5.95h-13.79v-34.81Z"/></g><g><path class="cls-5" d="M30.32,107.8h-13.82c-.03-.39-.07-.76-.07-1.13,0-13.28,.01-26.55-.02-39.83,0-1.01,.33-1.22,1.32-1.2,3.78,.05,7.57,.03,11.36,.03,.4,0,.8,0,1.26,0v5.98h-7.5v30.14h1.22v-28.79h6.26v34.81Z"/><path class="cls-5" d="M83.88,101.79h1.19v-28.82h6.28v34.76h-13.8v-42h13.82v5.87h-7.49v30.19Z"/><path class="cls-5" d="M115.6,107.77v-36.06h-1.26v36.04h-6.29v-42.01h13.81v42.03h-6.26Z"/><path class="cls-5" d="M99.08,107.79h-6.26v-42.07h13.75v42.05h-6.2v-14.34l-1.29-.05v14.41Zm1.19-20.47v-15.66l-1.18,.05v15.6h1.18Z"/><path class="cls-5" d="M39.34,65.72h6.23v42.04c-.25,.03-.43,.07-.6,.07-4.12,0-8.24,0-12.35,.02-.67,0-.91-.18-.91-.84,.02-13.63,.02-27.25,.02-40.88,0-.1,.03-.2,.07-.39h6.22c0,.42,0,.82,0,1.23,0,11.13,0,22.25,0,33.38,0,.32-.07,.66,.03,.94,.08,.22,.42,.54,.59,.51,.26-.05,.56-.31,.68-.55,.12-.23,.03-.55,.03-.83,0-11.16,0-22.32,0-33.48,0-.38,0-.77,0-1.21Z"/><path class="cls-5" d="M123.28,107.76v-42.01h13.82v5.89h-7.48v30.11h1.23v-28.77h6.25v34.79h-13.82Z"/><path class="cls-5" d="M76.05,107.79h-13.73v-5.93h7.45v-8.49h-7.49v-27.63h6.25v21.57h1.27v-21.57h6.24v42.05Z"/><path class="cls-5" d="M60.89,101.85c0,1.9,.02,3.58-.03,5.27,0,.24-.35,.68-.54,.68-4.4,.04-8.81,.03-13.29,.03v-42.09h6.26c0,.38,0,.79,0,1.19,0,11.23,.01,22.46-.02,33.69,0,.95,.23,1.29,1.28,1.25,2.06-.08,4.13-.02,6.33-.02Z"/><path class="cls-5" d="M54.67,65.72h6.21v28.86h7.58v5.95h-13.79v-34.81Z"/></g></g><path class="cls-3" d="M129.55,61.68h9.95s3.41,.28,3.47,2.57v15.65"/><path class="cls-4" d="M25.07,115.73H15.12s-3.41-.28-3.47-2.57v-15.65"/></svg>