<svg width="14" height="14" viewBox="0 0 14 14" fill="none" xmlns="http://www.w3.org/2000/svg">
<g id="google-icon 1" clip-path="url(#clip0_0_347)">
<path id="Vector" d="M13.9926 7.13096C13.9926 6.55738 13.9449 6.13883 13.8419 5.70477H7.1394V8.2936H11.0736C10.9943 8.93695 10.566 9.90584 9.61414 10.5569L9.6008 10.6436L11.72 12.2478L11.8668 12.2622C13.2152 11.0452 13.9926 9.25473 13.9926 7.13096Z" fill="#4285F4"/>
<path id="Vector_2" d="M7.13948 13.9519C9.06691 13.9519 10.685 13.3318 11.8669 12.2622L9.61422 10.5569C9.0114 10.9677 8.20233 11.2545 7.13948 11.2545C5.2517 11.2545 3.64946 10.0376 3.07831 8.35565L2.99459 8.3626L0.791024 10.0291L0.762207 10.1074C1.93612 12.3862 4.34742 13.9519 7.13948 13.9519Z" fill="#34A853"/>
<path id="Vector_3" d="M3.07816 8.35566C2.92746 7.92161 2.84024 7.45651 2.84024 6.97597C2.84024 6.49537 2.92746 6.03033 3.07023 5.59627L3.06624 5.50383L0.835056 3.81058L0.762055 3.84451C0.27823 4.79015 0.000610352 5.85207 0.000610352 6.97597C0.000610352 8.09987 0.27823 9.16173 0.762055 10.1074L3.07816 8.35566Z" fill="#FBBC05"/>
<path id="Vector_4" d="M7.13948 2.69735C8.47995 2.69735 9.38417 3.26317 9.89976 3.73602L11.9145 1.81375C10.6771 0.689847 9.0669 0 7.13948 0C4.34742 0 1.93612 1.5657 0.762207 3.8445L3.07038 5.59626C3.64946 3.91428 5.2517 2.69735 7.13948 2.69735Z" fill="#EB4335"/>
</g>
<defs>
<clipPath id="clip0_0_347">
<rect width="14" height="14" fill="white"/>
</clipPath>
</defs>
</svg>
